<?xml version="1.0" encoding="utf-8"?>
<!-- Generator: Adobe Illustrator 19.0.0, SVG Export Plug-In . SVG Version: 6.00 Build 0)  -->
<svg version="1.1" id="Layer_1" xmlns="http://www.w3.org/2000/svg" xmlns:xlink="http://www.w3.org/1999/xlink" x="0px" y="0px"
	 viewBox="0 0 32 32" style="enable-background:new 0 0 32 32;" xml:space="preserve">
<style type="text/css">
	.st0{fill-rule:evenodd;clip-rule:evenodd;}
	.st1{fill-rule:evenodd;clip-rule:evenodd;fill:#662D91;}
	.st2{font-family:'FuturaBT-Heavy';}
	.st3{font-size:2.2455px;}
	.st4{fill:#662D91;}
	.st5{fill:#FFFFFF;}
</style>
<g id="XMLID_1_">
	<path id="XMLID_41_" class="st0" d="M14.4,0.2l0.2,2.1c-1.9,0.1-3.6,0.9-3.9,0.9c-0.2-0.4-0.6-1.7-0.8-1.9c-0.8,0.2-2.3,1.1-3,1.6
		C6.5,3.1,6.1,3.4,5.9,3.5c0.1,0.3,1,1.3,1.3,1.7C7.1,5.3,6,6.3,5.8,6.5C5.5,6.8,5.3,7,5.1,7.3C4.9,7.5,4.7,7.9,4.5,8.1
		C4.2,7.9,3.8,7.6,3.6,7.5C3.3,7.3,2.9,7,2.7,6.9C2.2,7.8,0.8,9.7,0.6,11l2,0.6l-0.2,0.8l4,0L7.2,11c0.3-0.5,0.6-0.9,0.9-1.3
		c2.2-2.7,5.2-3.8,9-3.6C17,6.4,16.2,7,16,7.2c-0.3,0.2-0.9,0.7-1.2,0.9c-2.3-1.2-3.9,0.9-3.4,2.5c0.2-0.1,0.4-0.3,0.6-0.4
		c0.7-0.6,1.5-1.4,2.2-0.7c0.7,0.8-0.4,1.4-1.1,1.9c-0.3,0.2-0.5,0.3-0.6,0.5c1.4,0.7,2.8,0.1,3.3-1.2c0.2-0.6,0.1-0.9,0-1.5
		C16.1,9,17,8.2,17.4,7.9L19,6.7c0.6,0,2.5,1.1,2.9,1.5c-0.2,0.3-1,0.7-1.2,1c-0.2,0.3,0.1,0.2-0.5,0.6c-0.9,0.6-2.5,1.6-3.1,2.3
		l0.1,0.3c0.7-0.2,3.3-2.4,3.5-2.5c0.2-0.1,0.2,0,0.5-0.1c0.1,0,0.6-0.4,0.7-0.5c0.2-0.1,0.5-0.4,0.7-0.5c0.3,0.1,1.1,1.1,1.5,1.6
		c0.6,0.9,0.9,1.8,1.1,2l6.3,0c0.1-0.8-1.2-3.4-1.5-4c-0.5,0.2-1.5,0.9-1.9,1c-0.2-0.3-0.3-0.5-0.5-0.8L26.3,7
		c-0.2-0.2-0.6-0.5-0.7-0.7c0.3-0.4,1.2-1.1,1.5-1.5c-0.3-0.5-2.9-2.4-3.7-2.7c-0.2,0.2-0.8,1.4-1,1.8c-0.2,0-1.4-0.6-1.8-0.7
		c-0.7-0.2-1.3-0.4-2-0.6L19,0.5C17.6,0.2,16,0,14.4,0.2"/>
	<path id="XMLID_40_" class="st1" d="M4.2,23.1c-0.4,0.4-1.5,0.8-1.8,1.1c0.2,0.7,2.2,3.1,2.9,3.5c0.3-0.2,1.1-1.1,1.3-1.4l0.1-0.1
		c0.3,0.2,1,0.8,1.5,1.2l1.7,1l-0.9,1.9c0.6,0.5,3.5,1.3,4.4,1.4l0.4-2.1c2.4,0.2,1.7,0.2,4,0.1l0.3,2.1c0.8,0.1,4.1-0.8,4.5-1.2
		c-0.2-0.5-0.7-1.4-0.8-1.9l3.4-2.1c0.5,0.5,0.9,1.1,1.4,1.6c0.5-0.1,2.9-2.8,3.1-3.4l-1.8-1.2c0.2-0.4,0.7-1,0.8-1.4l-4.5,0
		c-0.4,0.4-0.7,0.9-1.3,1.4c-0.4,0.3-1,0.8-1.7,1.2c-0.1,1.6,0,1,0.4,1.4c0.5,0.6,0.1,1.6-0.8,1.5c-0.5,0-0.9-0.4-0.9-0.9
		c0-0.8,0.6-0.6,0.6-1.2l0-1.2c1-0.4,0.7-1.8-0.3-1.8c-0.8,0-1.5,1.1-0.4,1.8l0,1c-0.8,0.3-1.5,0.5-2.5,0.6l0,1.1
		c0.3,0.2,0.7,0.4,0.6,1.1c-0.2,1-1.6,1-1.9,0c-0.1-0.6,0.2-0.9,0.5-1.1l0-1.7c0.3-0.3,0.7-0.4,0.6-1.1c-0.1-0.4-0.4-0.8-0.9-0.8
		c-1.1,0-1.3,1.5-0.4,1.8l0,0.7c-1.5-0.1-2.1-0.3-3.4-0.7l0-1c1-0.5,0.6-1.8-0.4-1.8c-0.8,0-1.5,1.1-0.3,1.8l0,1.4
		c0.3,0.3,0.7,0.4,0.6,1.1c-0.1,0.4-0.4,0.8-0.9,0.8c-1,0-1.4-1.3-0.4-1.8l0-1.3c-0.4-0.2-1.3-0.9-1.6-1.2l-1-1.1
		c-0.2-0.2-0.1-0.2-0.5-0.2l-4.3,0c0.1,0.1,0.1,0.3,0.2,0.4C4,22.7,4.2,22.9,4.2,23.1"/>
	<text id="XMLID_39_" transform="matrix(1.0114 0 0 1 1.2317 19.8631)" class="st2 st3">Automated </text>
	<text id="XMLID_38_" transform="matrix(1.0114 0 0 1 13.8909 19.8631)" class="st4 st2 st3">Control </text>
	<text id="XMLID_37_" transform="matrix(1.0114 0 0 1 22.6628 19.8631)" class="st2 st3">Systems</text>
	<path id="XMLID_79_" class="st5" d="M7.4,6.3l1.2-3h0.7l1.2,3H9.7L9.5,5.6H8.3L8.1,6.3H7.4z M9.3,5.1L9,4.2c0,0,0-0.1,0-0.1
		c0-0.1,0-0.2,0-0.3c0,0.1,0,0.2-0.1,0.3c0,0.1,0,0.1,0,0.2l-0.3,1H9.3z"/>
	<path id="XMLID_34_" class="st5" d="M17.6,3.5c-0.1-0.1-0.3-0.2-0.4-0.3c-0.1-0.1-0.3-0.1-0.4-0.1c-0.3,0-0.6,0.1-0.8,0.3
		c-0.2,0.2-0.3,0.5-0.3,0.8c0,0.3,0.1,0.6,0.3,0.8c0.2,0.2,0.4,0.3,0.7,0.3c0.2,0,0.3,0,0.5-0.1c0.2-0.1,0.3-0.1,0.4-0.3l0,0.7
		c-0.1,0.1-0.3,0.1-0.4,0.2c-0.2,0-0.3,0.1-0.5,0.1c-0.5,0-0.9-0.1-1.2-0.4C15.2,5.1,15,4.7,15,4.2c0-0.5,0.2-0.8,0.5-1.1
		c0.3-0.3,0.7-0.4,1.2-0.4c0.2,0,0.3,0,0.5,0.1c0.2,0,0.3,0.1,0.5,0.2L17.6,3.5z"/>
	<path id="XMLID_33_" class="st5" d="M23.1,6l0.4-0.4c0,0.1,0.1,0.2,0.2,0.3c0.1,0.1,0.2,0.1,0.3,0.1c0.2,0,0.3,0,0.4-0.1
		c0.1-0.1,0.1-0.2,0.1-0.3c0-0.1-0.1-0.3-0.4-0.4C24,5.1,23.9,5,23.9,5c-0.3-0.1-0.5-0.3-0.6-0.4c-0.1-0.1-0.2-0.3-0.2-0.5
		c0-0.2,0.1-0.5,0.3-0.6c0.2-0.2,0.5-0.2,0.8-0.2c0.2,0,0.3,0,0.5,0.1c0.1,0.1,0.3,0.2,0.4,0.3L24.7,4c0-0.1-0.1-0.2-0.2-0.2
		c-0.1,0-0.2-0.1-0.3-0.1c-0.1,0-0.2,0-0.3,0.1c-0.1,0.1-0.1,0.1-0.1,0.2c0,0.2,0.2,0.3,0.5,0.4c0.1,0,0.1,0,0.1,0.1
		C24.7,4.7,24.8,4.9,25,5c0.1,0.1,0.2,0.3,0.2,0.5c0,0.3-0.1,0.5-0.3,0.7c-0.2,0.2-0.5,0.3-0.8,0.3c-0.2,0-0.4,0-0.6-0.1
		C23.3,6.2,23.2,6.1,23.1,6"/>
	<path id="XMLID_69_" d="M3.2,15.8h0.3c0.1,0,0.2,0,0.2,0.1c0,0.1,0,0.2-0.2,0.2H3.3c0,0,0.1,0.1,0.1,0.3c0,0.2-0.2,0.5-0.7,0.5H1.7
		c-0.6,0-0.9-0.3-0.9-0.8c0-0.3,0.1-0.6,0.3-0.8c0,0,0,0,0.1,0l0.2,0.1c0,0,0,0,0,0c-0.1,0.1-0.2,0.4-0.2,0.6c0,0.4,0.3,0.6,0.6,0.6
		h0.9c0.3,0,0.4-0.1,0.4-0.2c0-0.2-0.3-0.3-0.8-0.5c0,0,0,0,0,0l0.1-0.2c0,0,0,0,0,0C2.7,15.6,2.9,15.8,3.2,15.8z M1.7,17.5
		C1.7,17.5,1.7,17.5,1.7,17.5l0-0.3c0,0,0,0,0,0H2c0,0,0,0,0,0v0.3c0,0,0,0,0,0H1.7z M2.2,17.5C2.1,17.5,2.1,17.5,2.2,17.5l0-0.3
		c0,0,0,0,0,0h0.3c0,0,0,0,0,0v0.3c0,0,0,0,0,0H2.2z M3.6,16.1c-0.1,0-0.2,0-0.2-0.1c0-0.1,0-0.2,0.2-0.2h0.2c0.1,0,0.2,0,0.2-0.2
		v-2.1c0,0,0,0,0,0h0.2c0,0,0,0,0,0v2.1c0,0.3-0.1,0.5-0.5,0.5H3.6z M5.9,15.8h0.5c0.1,0,0.2,0,0.2-0.2v-2.1c0,0,0,0,0,0h0.2
		c0,0,0,0,0,0v2.1c0,0.3-0.1,0.5-0.5,0.5H4.8c0,0,0,0,0,0v-0.2c0,0,0,0,0,0h0.8v-1.7c0,0,0,0,0,0h0.2c0,0,0,0,0,0V15.8z M5.3,13.4
		c0.2,0,0.5,0.2,0.7,0.2c0.1,0,0.1,0,0.1-0.1c0,0,0,0,0,0h0.1c0,0,0,0,0,0c0,0.2-0.1,0.3-0.3,0.3c-0.3,0-0.6-0.2-0.7-0.2
		c-0.1,0-0.1,0-0.1,0.1c0,0,0,0-0.1,0l-0.1,0c0,0,0,0,0,0C5.1,13.5,5.2,13.4,5.3,13.4z M7.7,16.1C7.7,16.1,7.7,16.1,7.7,16.1l-0.3,0
		c0,0,0,0,0,0v-2.5c0,0,0,0,0,0h0.2c0,0,0,0,0,0V16.1z"/>
	<path id="XMLID_59_" class="st4" d="M9.6,15.8c-0.1,0.2-0.3,0.1-0.3,0.4v0.6H9v-0.7c0-0.5,0.5-0.4,0.5-0.7c0-0.1,0-0.1,0-0.2
		c0-0.6,0.3-0.8,0.7-0.8c0.5,0,0.7,0.2,0.7,0.8c0,0.1,0,0.1,0,0.2c0,0.3,0.1,0.3,0.2,0.3h0.1c0.1,0,0.2,0,0.2,0.1
		c0,0.1,0,0.2-0.2,0.2h-0.1c-0.1,0-0.3,0-0.4-0.2c-0.1,0.1-0.3,0.2-0.6,0.2C10,16.1,9.8,16,9.6,15.8z M9.8,15.3
		c0,0.4,0.1,0.5,0.4,0.5c0.3,0,0.4-0.2,0.4-0.5c0-0.3-0.1-0.5-0.4-0.5C10,14.8,9.8,15,9.8,15.3z M12,14.5h0.3c0.4,0,0.7,0.2,0.7,0.7
		v0.2c0,0,0,0.1,0,0.1c0,0.2,0.1,0.2,0.3,0.2h0c0.1,0,0.2,0,0.2,0.1c0,0.1,0,0.2-0.2,0.2h-0.1c-0.2,0-0.3-0.1-0.4-0.2
		c-0.1,0.2-0.2,0.2-0.5,0.2h-1.1c-0.1,0-0.2,0-0.2-0.2c0-0.1,0-0.1,0.2-0.1h1c0.3,0,0.3-0.1,0.3-0.3v-0.2c0-0.3-0.1-0.4-0.4-0.4
		h-0.6c0,0,0,0,0,0v-0.2c0,0,0,0,0-0.1l0.8-1c0,0,0,0,0.1,0l0.2,0.2c0,0,0,0,0,0.1L12,14.5z M13.9,15C13.9,15,13.9,15,13.9,15
		l-0.2-0.1c0,0,0,0,0-0.1c0.1-0.2,0.4-0.3,0.7-0.3c0.7,0,0.9,0.5,0.9,1c0,0,0,0.1,0,0.1c0,0.2,0.1,0.2,0.3,0.2h0
		c0.1,0,0.2,0,0.2,0.1c0,0.1,0,0.2-0.2,0.2h-0.1c-0.2,0-0.3-0.1-0.4-0.2c-0.1,0.2-0.2,0.2-0.5,0.2h-1.2c-0.1,0-0.2,0-0.2-0.2
		c0-0.1,0-0.1,0.2-0.1h1.1c0.3,0,0.3-0.1,0.3-0.4c0-0.4-0.1-0.7-0.5-0.7C14.1,14.8,14,14.8,13.9,15z M15.6,16.1
		c-0.1,0-0.2,0-0.2-0.1c0-0.1,0-0.2,0.2-0.2h0.3c0.1,0,0.2,0,0.2-0.2v-1c0,0,0,0,0,0h0.2c0,0,0,0,0,0v1c0,0.2,0.1,0.3,0.3,0.3h0
		c0.1,0,0.2,0,0.2,0.1c0,0.1,0,0.2-0.2,0.2h-0.1c-0.2,0-0.3-0.1-0.4-0.2c-0.1,0.1-0.2,0.2-0.4,0.2H15.6z M15.9,14.1
		C15.8,14.1,15.8,14.1,15.9,14.1l0-0.3c0,0,0,0,0,0h0.3c0,0,0,0,0,0v0.3c0,0,0,0,0,0H15.9z M16.3,14.1
		C16.3,14.1,16.3,14.1,16.3,14.1l0-0.3c0,0,0,0,0,0h0.3c0,0,0,0,0,0v0.3c0,0,0,0,0,0H16.3z M16.8,16.1c-0.1,0-0.2,0-0.2-0.1
		c0-0.1,0-0.2,0.2-0.2H17c0.1,0,0.2,0,0.2-0.2v-2.1c0,0,0,0,0,0h0.2c0,0,0,0,0,0v2.1c0,0.3-0.1,0.5-0.5,0.5H16.8z M18.4,16.1
		C18.4,16.1,18.4,16.1,18.4,16.1l-0.3,0c0,0,0,0,0,0v-2.5c0,0,0,0,0,0h0.2c0,0,0,0,0,0V16.1z"/>
	<path id="XMLID_44_" d="M22.1,15.8c0.1,0,0.2,0,0.2-0.2v-1c0,0,0,0,0,0h0.2c0,0,0,0,0,0v1c0,0.3-0.1,0.5-0.5,0.5h-1.9
		c-0.3,0-0.5-0.1-0.5-0.5v-0.8c0,0,0,0,0,0h0.2c0,0,0,0,0,0v0.8c0,0.2,0.1,0.2,0.2,0.2H22.1z M20.8,14.4
		C20.8,14.4,20.8,14.4,20.8,14.4l0-0.3c0,0,0,0,0,0h0.3c0,0,0,0,0,0v0.3c0,0,0,0,0,0H20.8z M21.3,14.4
		C21.3,14.4,21.3,14.4,21.3,14.4l0-0.3c0,0,0,0,0,0h0.3c0,0,0,0,0,0v0.3c0,0,0,0,0,0H21.3z M23.1,13.5
		C23.1,13.5,23.1,13.5,23.1,13.5l0.3,0c0,0,0,0,0,0v2.1c0,0.2,0.1,0.2,0.2,0.2h0.2c0.1,0,0.2,0,0.2,0.2c0,0.1,0,0.1-0.2,0.1h-0.2
		c-0.3,0-0.5-0.1-0.5-0.5V13.5z M23.8,16.1c-0.1,0-0.2,0-0.2-0.1c0-0.1,0-0.2,0.2-0.2H24c0.1,0,0.2,0,0.2-0.2v-1c0,0,0,0,0,0h0.2
		c0,0,0,0,0,0v1c0,0.2,0.1,0.3,0.3,0.3h0c0.1,0,0.2,0,0.2,0.1c0,0.1,0,0.2-0.2,0.2h-0.1c-0.2,0-0.3-0.1-0.4-0.2
		c-0.1,0.1-0.2,0.2-0.4,0.2H23.8z M24,16.8C24,16.8,23.9,16.8,24,16.8l0-0.3c0,0,0,0,0,0h0.3c0,0,0,0,0,0v0.3c0,0,0,0,0,0H24z
		 M24.5,16.8C24.4,16.8,24.4,16.8,24.5,16.8l0-0.3c0,0,0,0,0,0h0.3c0,0,0,0,0,0v0.3c0,0,0,0,0,0H24.5z M25.4,15
		C25.4,15,25.4,15,25.4,15l-0.2-0.1c0,0,0,0,0-0.1c0.1-0.2,0.4-0.3,0.7-0.3c0.7,0,0.9,0.5,0.9,1c0,0,0,0.1,0,0.1
		c0,0.2,0.1,0.2,0.3,0.2h0c0.1,0,0.2,0,0.2,0.1c0,0.1,0,0.2-0.2,0.2H27c-0.2,0-0.3-0.1-0.4-0.2c-0.1,0.2-0.2,0.2-0.5,0.2h-1.2
		c-0.1,0-0.2,0-0.2-0.2c0-0.1,0-0.1,0.2-0.1H26c0.3,0,0.3-0.1,0.3-0.4c0-0.4-0.1-0.7-0.5-0.7C25.7,14.8,25.5,14.8,25.4,15z
		 M25.8,16.8C25.8,16.8,25.7,16.8,25.8,16.8l0-0.3c0,0,0,0,0,0H26c0,0,0,0,0,0v0.3c0,0,0,0,0,0H25.8z M27.7,15.9
		c-0.1,0.2-0.3,0.2-0.4,0.2h-0.2c-0.1,0-0.2,0-0.2-0.2c0-0.1,0-0.1,0.2-0.1h0.2c0.1,0,0.2-0.1,0.2-0.3c0,0,0-0.1,0-0.2
		c0-0.6,0.3-0.8,0.7-0.8c0.5,0,0.7,0.2,0.7,0.8c0,0.6-0.3,0.8-0.7,0.8C28,16.1,27.9,16.1,27.7,15.9z M27.9,15.3
		c0,0.4,0.1,0.5,0.4,0.5c0.3,0,0.4-0.2,0.4-0.5c0-0.3-0.1-0.5-0.4-0.5C28,14.8,27.9,15,27.9,15.3z M29.3,16.9
		C29.3,16.9,29.2,16.8,29.3,16.9l0-0.3c0,0,0,0,0,0h0.1c0.2,0,0.3-0.1,0.3-0.3v-1.7c0,0,0,0,0,0H30c0,0,0,0,0,0v1
		c0,0.2,0.1,0.3,0.3,0.3h0c0.1,0,0.2,0,0.2,0.1c0,0.1,0,0.2-0.2,0.2h-0.1c-0.1,0-0.2,0-0.3-0.1v0.3c0,0.4-0.2,0.6-0.6,0.6H29.3z
		 M30.4,16.1c-0.1,0-0.2,0-0.2-0.1c0-0.1,0-0.2,0.2-0.2h0.2c0.1,0,0.2,0,0.2-0.2v-1c0,0,0,0,0,0h0.2c0,0,0,0,0,0v1
		c0,0.3-0.1,0.5-0.5,0.5H30.4z M30.8,16.8C30.7,16.8,30.7,16.8,30.8,16.8l0-0.3c0,0,0,0,0,0H31c0,0,0,0,0,0v0.3c0,0,0,0,0,0H30.8z"
		/>
</g>
</svg>
